<svg xmlns="http://www.w3.org/2000/svg">
<symbol id="code" viewBox="0 0 24 24"><path d="m8 9-3 3 3 3"/><path d="m16 9 3 3-3 3"/><path d="m14 6-4 12"/></symbol>
<symbol id="linkedin" viewBox="0 0 24 24"><rect x="4" y="9" width="4" height="11" rx="1"/><path d="M6 6h.01"/><path d="M12 20V9h4v2c1-2 5-3 5 2v7"/></symbol>
<symbol id="scholar" viewBox="0 0 24 24"><path d="m3 9 9-5 9 5-9 5-9-5Z"/><path d="M7 12v4c3 2 7 2 10 0v-4"/><path d="M21 10v6"/></symbol>
<symbol id="id" viewBox="0 0 24 24"><rect x="3" y="5" width="18" height="14" rx="2"/><circle cx="8" cy="11" r="2"/><path d="M5 16c1-2 5-2 6 0"/><path d="M14 10h4M14 14h4"/></symbol>
<symbol id="mail" viewBox="0 0 24 24"><rect x="3" y="5" width="18" height="14" rx="2"/><path d="m4 7 8 6 8-6"/></symbol>
<symbol id="sun" viewBox="0 0 24 24"><circle cx="12" cy="12" r="4"/><path d="M12 2v2M12 20v2M4.93 4.93l1.42 1.42M17.66 17.66l1.41 1.41M2 12h2M20 12h2M4.93 19.07l1.42-1.41M17.66 6.34l1.41-1.41"/></symbol>
<symbol id="moon" viewBox="0 0 24 24"><path d="M20 15.5A8 8 0 1 1 8.5 4 6.5 6.5 0 0 0 20 15.5Z"/></symbol>
<symbol id="menu" viewBox="0 0 24 24"><path d="M4 7h16M4 12h16M4 17h16"/></symbol>
<symbol id="arrow" viewBox="0 0 24 24"><path d="M5 12h14M13 6l6 6-6 6"/></symbol>
<symbol id="external" viewBox="0 0 24 24"><path d="M14 4h6v6M20 4l-9 9"/><path d="M19 13v6a1 1 0 0 1-1 1H5a1 1 0 0 1-1-1V6a1 1 0 0 1 1-1h6"/></symbol>
<symbol id="download" viewBox="0 0 24 24"><path d="M12 3v12M7 10l5 5 5-5M5 21h14"/></symbol>
<symbol id="graduation" viewBox="0 0 24 24"><path d="m3 9 9-5 9 5-9 5-9-5Z"/><path d="M7 12v4c3 2 7 2 10 0v-4"/></symbol>
<symbol id="briefcase" viewBox="0 0 24 24"><rect x="3" y="7" width="18" height="13" rx="2"/><path d="M8 7V5a2 2 0 0 1 2-2h4a2 2 0 0 1 2 2v2M3 12h18M10 12v2h4v-2"/></symbol>
<symbol id="award" viewBox="0 0 24 24"><circle cx="12" cy="8" r="5"/><path d="m8.5 12-2 9 5.5-3 5.5 3-2-9"/></symbol>
<symbol id="service" viewBox="0 0 24 24"><path d="M12 3v18M3 12h18"/><circle cx="12" cy="12" r="8"/></symbol>
<symbol id="flask" viewBox="0 0 24 24"><path d="M9 3h6M10 3v6l-5 9a2 2 0 0 0 2 3h10a2 2 0 0 0 2-3l-5-9V3"/><path d="M8 15h8"/></symbol>
<symbol id="layers" viewBox="0 0 24 24"><path d="m12 3 9 5-9 5-9-5 9-5Z"/><path d="m3 12 9 5 9-5M3 16l9 5 9-5"/></symbol>
<symbol id="publications" viewBox="0 0 24 24"><path d="M4 4h6a2 2 0 0 1 2 2v14a3 3 0 0 0-3-3H4V4Z"/><path d="M20 4h-6a2 2 0 0 0-2 2v14a3 3 0 0 1 3-3h5V4Z"/></symbol>
<symbol id="journal" viewBox="0 0 24 24"><rect x="5" y="3" width="14" height="18" rx="2"/><path d="M9 7h6M9 11h6M9 15h4"/></symbol>
<symbol id="conference" viewBox="0 0 24 24"><rect x="3" y="4" width="18" height="13" rx="2"/><path d="M8 21h8M12 17v4M7 9h3M7 12h6"/></symbol>
<symbol id="clock" viewBox="0 0 24 24"><circle cx="12" cy="12" r="9"/><path d="M12 7v5l3 2"/></symbol>
<symbol id="tools" viewBox="0 0 24 24"><path d="m14 7 3-3 3 3-3 3M4 20l8-8M5 5l14 14"/></symbol>
<symbol id="teaching" viewBox="0 0 24 24"><path d="M4 4h16v12H4z"/><path d="M8 20h8M12 16v4"/><path d="M8 9h8"/></symbol>
<symbol id="book" viewBox="0 0 24 24"><path d="M4 5h6a2 2 0 0 1 2 2v13a3 3 0 0 0-3-3H4V5Z"/><path d="M20 5h-6a2 2 0 0 0-2 2v13a3 3 0 0 1 3-3h5V5Z"/></symbol>
</svg>